<svg xmlns="http://www.w3.org/2000/svg" width="152" height="43" viewBox="0 0 152 43" fill="none"><path d="M97.8908 43C97.7944 43 97.698 43 97.6045 42.9944C93.1879 42.8057 91.2489 36.6825 89.1965 30.2018C88.0881 26.7024 86.9429 23.0847 85.4404 20.5792C83.8529 17.9328 82.1861 16.4886 80.4909 16.283C77.8517 15.9677 74.912 18.524 72.1254 21.3308C69.7896 23.6872 67.5529 25.0273 65.7557 26.1027L65.2738 26.3927C63.2214 27.6314 60.8203 27.9693 58.5128 27.3414C56.211 26.7136 54.323 25.2131 53.1976 23.1129C52.8943 22.5442 52.5824 21.9502 52.2621 21.3365C50.6236 18.2031 48.7668 14.653 46.258 11.6435C44.5175 9.55454 42.4651 8.94363 39.9875 9.77132C38.2129 10.3653 36.7048 11.6688 35.7466 13.4396L30.0997 23.8533C28.4953 26.815 25.6463 28.8898 22.4827 29.4079C18.857 29.9991 15.8776 28.5605 13.1137 24.8753C8.66027 18.9407 5.50232 17.4401 3.63703 17.2262C2.25082 17.0657 1.5563 17.6316 1.52795 17.6569L0 15.9903C0.13607 15.8636 1.40322 14.7628 3.73058 14.9683C7.13232 15.2724 10.8997 18.1524 14.9336 23.5267C17.1986 26.5419 19.3474 27.637 22.117 27.1838C24.5918 26.7812 26.8312 25.1343 28.1041 22.7863L33.7509 12.3726C34.9841 10.0979 36.9429 8.41435 39.2646 7.63734C41.6175 6.84906 45.0476 6.65481 48.0071 10.2077C50.6689 13.403 52.5853 17.0657 54.2776 20.2976C54.5951 20.9029 54.9013 21.4913 55.2046 22.0544C56.0324 23.5999 57.4214 24.7063 59.1166 25.1681C60.8146 25.6298 62.5835 25.382 64.0973 24.467L64.5877 24.1714C66.2773 23.1608 68.3779 21.9023 70.5124 19.7486C74.2005 16.0269 77.3584 13.6367 80.7659 14.0421C83.2321 14.3377 85.3979 16.0972 87.3936 19.4221C89.0321 22.1557 90.2199 25.9 91.3651 29.5233C93.0915 34.9793 94.8802 40.6183 97.7065 40.7393C99.4868 40.8125 105.573 39.6048 108.606 20.8269C111.421 3.34968 116.895 0.787776 117.899 0.461204C118.378 0.264135 120.702 -0.572002 123.103 0.655458C125.436 1.84913 127.013 4.53209 127.789 8.63113C129.105 15.5764 131.469 24.9569 136.795 26.2238L136.866 26.2435C137.093 26.3082 142.782 27.8031 149.246 18.9266L151.086 20.247C143.823 30.2215 136.917 28.5999 136.24 28.4084C129.725 26.8347 127.109 17.2374 125.558 9.04498C124.932 5.72858 123.73 3.52422 122.091 2.66838C120.453 1.81535 118.829 2.51354 118.76 2.54169L118.582 2.60363C118.582 2.60363 113.536 4.50675 110.843 21.1816C107.804 40.013 101.545 42.9944 97.8908 42.9944V43Z" fill="#F78D3A"></path></svg>